<svg width="314" height="56" viewBox="0 0 314 56" fill="none" xmlns="http://www.w3.org/2000/svg">
<rect width="314" height="56" rx="8" fill="#685ED9"/>
<path d="M31.2784 26.4375H28.7898C28.7443 26.1155 28.6515 25.8295 28.5114 25.5795C28.3712 25.3258 28.1913 25.1098 27.9716 24.9318C27.7519 24.7538 27.4981 24.6174 27.2102 24.5227C26.9261 24.428 26.6174 24.3807 26.2841 24.3807C25.6818 24.3807 25.1572 24.5303 24.7102 24.8295C24.2633 25.125 23.9167 25.5568 23.6705 26.125C23.4242 26.6894 23.3011 27.375 23.3011 28.1818C23.3011 29.0114 23.4242 29.7083 23.6705 30.2727C23.9205 30.8371 24.2689 31.2633 24.7159 31.5511C25.1629 31.839 25.6799 31.983 26.267 31.983C26.5966 31.983 26.9015 31.9394 27.1818 31.8523C27.4659 31.7652 27.7178 31.6383 27.9375 31.4716C28.1572 31.3011 28.339 31.0947 28.483 30.8523C28.6307 30.6098 28.733 30.3333 28.7898 30.0227L31.2784 30.0341C31.214 30.5682 31.053 31.0833 30.7955 31.5795C30.5417 32.072 30.1989 32.5133 29.767 32.9034C29.339 33.2898 28.8277 33.5966 28.233 33.8239C27.642 34.0473 26.9735 34.1591 26.2273 34.1591C25.1894 34.1591 24.2614 33.9242 23.4432 33.4545C22.6288 32.9848 21.9848 32.3049 21.5114 31.4148C21.0417 30.5246 20.8068 29.447 20.8068 28.1818C20.8068 26.9129 21.0455 25.8333 21.5227 24.9432C22 24.053 22.6477 23.375 23.4659 22.9091C24.2841 22.4394 25.2045 22.2045 26.2273 22.2045C26.9015 22.2045 27.5265 22.2992 28.1023 22.4886C28.6818 22.678 29.1951 22.9545 29.642 23.3182C30.089 23.678 30.4527 24.1193 30.733 24.642C31.017 25.1648 31.1989 25.7633 31.2784 26.4375ZM36.9403 34.1705C36.0578 34.1705 35.2945 33.983 34.6506 33.608C34.0104 33.2292 33.5161 32.7027 33.1676 32.0284C32.8191 31.3504 32.6449 30.5644 32.6449 29.6705C32.6449 28.7689 32.8191 27.9811 33.1676 27.3068C33.5161 26.6288 34.0104 26.1023 34.6506 25.7273C35.2945 25.3485 36.0578 25.1591 36.9403 25.1591C37.8229 25.1591 38.5843 25.3485 39.2244 25.7273C39.8684 26.1023 40.3646 26.6288 40.7131 27.3068C41.0616 27.9811 41.2358 28.7689 41.2358 29.6705C41.2358 30.5644 41.0616 31.3504 40.7131 32.0284C40.3646 32.7027 39.8684 33.2292 39.2244 33.608C38.5843 33.983 37.8229 34.1705 36.9403 34.1705ZM36.9517 32.2955C37.3532 32.2955 37.6884 32.1818 37.9574 31.9545C38.2263 31.7235 38.429 31.4091 38.5653 31.0114C38.7055 30.6136 38.7756 30.161 38.7756 29.6534C38.7756 29.1458 38.7055 28.6932 38.5653 28.2955C38.429 27.8977 38.2263 27.5833 37.9574 27.3523C37.6884 27.1212 37.3532 27.0057 36.9517 27.0057C36.5464 27.0057 36.2055 27.1212 35.929 27.3523C35.6563 27.5833 35.4498 27.8977 35.3097 28.2955C35.1733 28.6932 35.1051 29.1458 35.1051 29.6534C35.1051 30.161 35.1733 30.6136 35.3097 31.0114C35.4498 31.4091 35.6563 31.7235 35.929 31.9545C36.2055 32.1818 36.5464 32.2955 36.9517 32.2955ZM45.2301 28.9545V34H42.8097V25.2727H45.1165V26.8125H45.2188C45.4119 26.3049 45.7358 25.9034 46.1903 25.608C46.6449 25.3087 47.196 25.1591 47.8438 25.1591C48.4498 25.1591 48.9782 25.2917 49.429 25.5568C49.8797 25.822 50.2301 26.2008 50.4801 26.6932C50.7301 27.1818 50.8551 27.7652 50.8551 28.4432V34H48.4347V28.875C48.4384 28.3409 48.3021 27.9242 48.0256 27.625C47.7491 27.322 47.3684 27.1705 46.8835 27.1705C46.5578 27.1705 46.2699 27.2405 46.0199 27.3807C45.7737 27.5208 45.5805 27.7254 45.4403 27.9943C45.304 28.2595 45.2339 28.5795 45.2301 28.9545ZM57.456 25.2727V27.0909H52.0696V25.2727H57.456ZM53.3026 34V24.642C53.3026 24.0095 53.4257 23.4848 53.6719 23.0682C53.9219 22.6515 54.2628 22.339 54.6946 22.1307C55.1264 21.9223 55.617 21.8182 56.1662 21.8182C56.5374 21.8182 56.8764 21.8466 57.1832 21.9034C57.4938 21.9602 57.7249 22.0114 57.8764 22.0568L57.4446 23.875C57.3499 23.8447 57.2325 23.8163 57.0923 23.7898C56.956 23.7633 56.8158 23.75 56.6719 23.75C56.3158 23.75 56.0677 23.8333 55.9276 24C55.7874 24.1629 55.7173 24.392 55.7173 24.6875V34H53.3026ZM58.9347 34V25.2727H61.3551V34H58.9347ZM60.1506 24.1477C59.7907 24.1477 59.482 24.0284 59.2244 23.7898C58.9706 23.5473 58.8438 23.2576 58.8438 22.9205C58.8438 22.5871 58.9706 22.3011 59.2244 22.0625C59.482 21.8201 59.7907 21.6989 60.1506 21.6989C60.5104 21.6989 60.8172 21.8201 61.071 22.0625C61.3286 22.3011 61.4574 22.5871 61.4574 22.9205C61.4574 23.2576 61.3286 23.5473 61.071 23.7898C60.8172 24.0284 60.5104 24.1477 60.1506 24.1477ZM63.294 34V25.2727H65.6406V26.7955H65.7315C65.8906 26.2538 66.1577 25.8447 66.5327 25.5682C66.9077 25.2879 67.3395 25.1477 67.8281 25.1477C67.9493 25.1477 68.08 25.1553 68.2202 25.1705C68.3603 25.1856 68.4834 25.2064 68.5895 25.233V27.3807C68.4759 27.3466 68.3187 27.3163 68.1179 27.2898C67.9171 27.2633 67.7334 27.25 67.5668 27.25C67.2107 27.25 66.8925 27.3277 66.6122 27.483C66.3357 27.6345 66.116 27.8466 65.9531 28.1193C65.794 28.392 65.7145 28.7064 65.7145 29.0625V34H63.294ZM69.8409 34V25.2727H72.1477V26.8125H72.25C72.4318 26.3011 72.7348 25.8977 73.1591 25.6023C73.5833 25.3068 74.0909 25.1591 74.6818 25.1591C75.2803 25.1591 75.7898 25.3087 76.2102 25.608C76.6307 25.9034 76.911 26.3049 77.0511 26.8125H77.142C77.3201 26.3125 77.642 25.9129 78.108 25.6136C78.5777 25.3106 79.1326 25.1591 79.7727 25.1591C80.5871 25.1591 81.2481 25.4186 81.7557 25.9375C82.267 26.4527 82.5227 27.1837 82.5227 28.1307V34H80.108V28.608C80.108 28.1231 79.9792 27.7595 79.7216 27.517C79.464 27.2746 79.142 27.1534 78.7557 27.1534C78.3163 27.1534 77.9735 27.2936 77.7273 27.5739C77.4811 27.8504 77.358 28.2159 77.358 28.6705V34H75.0114V28.5568C75.0114 28.1288 74.8883 27.7879 74.642 27.5341C74.3996 27.2803 74.0795 27.1534 73.6818 27.1534C73.4129 27.1534 73.1705 27.2216 72.9545 27.358C72.7424 27.4905 72.5739 27.678 72.4489 27.9205C72.3239 28.1591 72.2614 28.4394 72.2614 28.7614V34H69.8409ZM86.9233 34.1648C86.3665 34.1648 85.8703 34.0682 85.4347 33.875C84.9991 33.678 84.6544 33.3883 84.4006 33.0057C84.1506 32.6193 84.0256 32.1383 84.0256 31.5625C84.0256 31.0777 84.1146 30.6705 84.2926 30.3409C84.4706 30.0114 84.7131 29.7462 85.0199 29.5455C85.3267 29.3447 85.6752 29.1932 86.0653 29.0909C86.4593 28.9886 86.8722 28.9167 87.304 28.875C87.8116 28.822 88.2206 28.7727 88.5312 28.7273C88.8419 28.678 89.0672 28.6061 89.2074 28.5114C89.3475 28.4167 89.4176 28.2765 89.4176 28.0909V28.0568C89.4176 27.697 89.304 27.4186 89.0767 27.2216C88.8532 27.0246 88.535 26.9261 88.1222 26.9261C87.6866 26.9261 87.34 27.0227 87.0824 27.2159C86.8248 27.4053 86.6544 27.6439 86.571 27.9318L84.3324 27.75C84.446 27.2197 84.6695 26.7614 85.0028 26.375C85.3362 25.9848 85.7661 25.6856 86.2926 25.4773C86.8229 25.2652 87.4366 25.1591 88.1335 25.1591C88.6184 25.1591 89.0824 25.2159 89.5256 25.3295C89.9725 25.4432 90.3684 25.6193 90.7131 25.858C91.0616 26.0966 91.3362 26.4034 91.5369 26.7784C91.7377 27.1496 91.8381 27.5947 91.8381 28.1136V34H89.5426V32.7898H89.4744C89.3343 33.0625 89.1468 33.303 88.9119 33.5114C88.6771 33.7159 88.3949 33.8769 88.0653 33.9943C87.7358 34.108 87.3551 34.1648 86.9233 34.1648ZM87.6165 32.4943C87.9725 32.4943 88.2869 32.4242 88.5597 32.2841C88.8324 32.1402 89.0464 31.947 89.2017 31.7045C89.357 31.4621 89.4347 31.1875 89.4347 30.8807V29.9545C89.3589 30.0038 89.2547 30.0492 89.1222 30.0909C88.9934 30.1288 88.8475 30.1648 88.6847 30.1989C88.5218 30.2292 88.3589 30.2576 88.196 30.2841C88.0331 30.3068 87.8854 30.3277 87.7528 30.3466C87.4688 30.3883 87.2206 30.4545 87.0085 30.5455C86.7964 30.6364 86.6316 30.7595 86.5142 30.9148C86.3968 31.0663 86.3381 31.2557 86.3381 31.483C86.3381 31.8125 86.4574 32.0644 86.696 32.2386C86.9384 32.4091 87.2453 32.4943 87.6165 32.4943ZM93.7159 34V25.2727H96.0625V26.7955H96.1534C96.3125 26.2538 96.5795 25.8447 96.9545 25.5682C97.3295 25.2879 97.7614 25.1477 98.25 25.1477C98.3712 25.1477 98.5019 25.1553 98.642 25.1705C98.7822 25.1856 98.9053 25.2064 99.0114 25.233V27.3807C98.8977 27.3466 98.7405 27.3163 98.5398 27.2898C98.339 27.2633 98.1553 27.25 97.9886 27.25C97.6326 27.25 97.3144 27.3277 97.0341 27.483C96.7576 27.6345 96.5379 27.8466 96.375 28.1193C96.2159 28.392 96.1364 28.7064 96.1364 29.0625V34H93.7159Z" fill="#FAFAFA"/>
<path d="M290.781 28.5306L284.031 35.2806C283.89 35.4213 283.699 35.5004 283.5 35.5004C283.301 35.5004 283.11 35.4213 282.969 35.2806C282.829 35.1399 282.75 34.949 282.75 34.75C282.75 34.551 282.829 34.3601 282.969 34.2194L288.44 28.75H273.75C273.551 28.75 273.36 28.671 273.22 28.5303C273.079 28.3897 273 28.1989 273 28C273 27.8011 273.079 27.6103 273.22 27.4697C273.36 27.329 273.551 27.25 273.75 27.25H288.44L282.969 21.7806C282.829 21.6399 282.75 21.449 282.75 21.25C282.75 21.051 282.829 20.8601 282.969 20.7194C283.11 20.5786 283.301 20.4996 283.5 20.4996C283.699 20.4996 283.89 20.5786 284.031 20.7194L290.781 27.4694C290.85 27.539 290.906 27.6217 290.943 27.7128C290.981 27.8038 291.001 27.9014 291.001 28C291.001 28.0986 290.981 28.1961 290.943 28.2872C290.906 28.3782 290.85 28.461 290.781 28.5306Z" fill="#FAFAFA"/>
</svg>
